<svg xmlns="http://www.w3.org/2000/svg" viewBox="0 0 120.01 34.41"><defs><style>.cls-1{fill:none;stroke:#000;stroke-linecap:round;stroke-linejoin:round;stroke-width:3.26px;}</style></defs><g id="Layer_2" data-name="Layer 2"><g id="Layer_1-2" data-name="Layer 1"><line class="cls-1" x1="88.25" y1="1.63" x2="88.25" y2="32.78"/><polyline class="cls-1" points="52.23 32.78 31.67 32.78 31.67 1.63 52.23 1.63"/><polyline class="cls-1" points="52.23 15.81 43.38 15.81 38.87 15.81"/><path class="cls-1" d="M114.57,5.91A13,13,0,0,0,112.62,4a10.37,10.37,0,0,0-6.5-2.37c-5.8,0-10.66,5.11-11.94,12A9.07,9.07,0,0,0,94,15.32v.49h23.51a.84.84,0,0,1,.83.81c0,.19,0,.39,0,.59,0,8.6-5.5,15.57-12.27,15.57-5.78,0-10.62-5.07-11.93-11.89"/><path class="cls-1" d="M9,15.81H25.33a.84.84,0,0,1,.83.81V32.78"/><path class="cls-1" d="M22.35,5.91A13,13,0,0,0,20.4,4a10.37,10.37,0,0,0-6.5-2.37c-6.78,0-12.27,7-12.27,15.58V32.78"/><path class="cls-1" d="M78.72,5.91a13,13,0,0,0-2-1.91,10.37,10.37,0,0,0-6.5-2.37C63.49,1.63,58,8.6,58,17.21s5.49,15.57,12.27,15.57,12.27-7,12.27-15.57c0-.2,0-.4,0-.59a.83.83,0,0,0-.82-.81H65.34"/></g></g></svg>