<svg xmlns="http://www.w3.org/2000/svg" viewBox="0 0 27.79 34.41"><defs><style>.cls-1{fill:none;stroke:#000;stroke-linecap:round;stroke-linejoin:round;stroke-width:3.26px;}</style></defs><g id="Layer_2" data-name="Layer 2"><g id="Layer_1-2" data-name="Layer 1"><circle cx="21.39" cy="10.96" r="1.7"/><circle cx="17.41" cy="10.96" r="1.7"/><path class="cls-1" d="M22.35,5.91A13,13,0,0,0,20.4,4a10.37,10.37,0,0,0-6.5-2.37c-6.78,0-12.27,7-12.27,15.58S7.12,32.78,13.9,32.78s12.27-7,12.27-15.57c0-.2,0-.4,0-.59a.84.84,0,0,0-.83-.81l-2.2,2.13A8.32,8.32,0,0,1,12,18.35L9,15.81"/></g></g></svg>